<svg class="marks" width="564" height="352" viewBox="0 0 564 352" version="1.1" xmlns="http://www.w3.org/2000/svg" xmlns:xlink="http://www.w3.org/1999/xlink"><g transform="translate(39,7)"><g class="mark-group role-frame root"><g transform="translate(0,0)"><path class="background" d="M0.5,0.5h500v300h-500Z" style="fill: none; stroke: #ddd; stroke-width: 0;"></path><g><g class="mark-rule role-mark layer_0_marks"><line transform="translate(0,300)" x2="0" y2="-300" style="fill: none; stroke: black; stroke-width: 1.7; stroke-dasharray: 5,3; opacity: 0.15;"></line><line transform="translate(125,300)" x2="0" y2="-300" style="fill: none; stroke: black; stroke-width: 1.7; stroke-dasharray: 5,3; opacity: 0.15;"></line><line transform="translate(250,300)" x2="0" y2="-300" style="fill: none; stroke: black; stroke-width: 1.7; stroke-dasharray: 5,3; opacity: 0.15;"></line><line transform="translate(375,300)" x2="0" y2="-300" style="fill: none; stroke: black; stroke-width: 1.7; stroke-dasharray: 5,3; opacity: 0.15;"></line><line transform="translate(500,300)" x2="0" y2="-300" style="fill: none; stroke: black; stroke-width: 1.7; stroke-dasharray: 5,3; opacity: 0.15;"></line></g><g class="mark-rect role-mark layer_1_layer_0_marks"><path d="M350,29h100v2h-100Z" style="fill: #99C4C7;"></path><path d="M225,89h175v2h-175Z" style="fill: #99C4C7;"></path><path d="M50,149h100v2h-100Z" style="fill: #99C4C7;"></path><path d="M100,209h25v2h-25Z" style="fill: #99C4C7;"></path><path d="M0,269h50v2h-50Z" style="fill: #99C4C7;"></path></g><g class="mark-symbol role-mark layer_1_layer_1_marks"><path transform="translate(450,30)" d="M6.324555320336759,0A6.324555320336759,6.324555320336759,0,1,1,-6.324555320336759,0A6.324555320336759,6.324555320336759,0,1,1,6.324555320336759,0" style="fill: #F4D044; stroke-width: 2; opacity: 1;"></path><path transform="translate(400,90)" d="M6.324555320336759,0A6.324555320336759,6.324555320336759,0,1,1,-6.324555320336759,0A6.324555320336759,6.324555320336759,0,1,1,6.324555320336759,0" style="fill: #F4D044; stroke-width: 2; opacity: 1;"></path><path transform="translate(150,150)" d="M6.324555320336759,0A6.324555320336759,6.324555320336759,0,1,1,-6.324555320336759,0A6.324555320336759,6.324555320336759,0,1,1,6.324555320336759,0" style="fill: #F4D044; stroke-width: 2; opacity: 1;"></path><path transform="translate(125,210)" d="M6.324555320336759,0A6.324555320336759,6.324555320336759,0,1,1,-6.324555320336759,0A6.324555320336759,6.324555320336759,0,1,1,6.324555320336759,0" style="fill: #F4D044; stroke-width: 2; opacity: 1;"></path><path transform="translate(50,270)" d="M6.324555320336759,0A6.324555320336759,6.324555320336759,0,1,1,-6.324555320336759,0A6.324555320336759,6.324555320336759,0,1,1,6.324555320336759,0" style="fill: #F4D044; stroke-width: 2; opacity: 1;"></path></g><g class="mark-symbol role-mark layer_1_layer_2_marks"><path transform="translate(350,30)" d="M6.324555320336759,0A6.324555320336759,6.324555320336759,0,1,1,-6.324555320336759,0A6.324555320336759,6.324555320336759,0,1,1,6.324555320336759,0" style="fill: #26445F; stroke-width: 2; opacity: 1;"></path><path transform="translate(225,90)" d="M6.324555320336759,0A6.324555320336759,6.324555320336759,0,1,1,-6.324555320336759,0A6.324555320336759,6.324555320336759,0,1,1,6.324555320336759,0" style="fill: #26445F; stroke-width: 2; opacity: 1;"></path><path transform="translate(50,150)" d="M6.324555320336759,0A6.324555320336759,6.324555320336759,0,1,1,-6.324555320336759,0A6.324555320336759,6.324555320336759,0,1,1,6.324555320336759,0" style="fill: #26445F; stroke-width: 2; opacity: 1;"></path><path transform="translate(100,210)" d="M6.324555320336759,0A6.324555320336759,6.324555320336759,0,1,1,-6.324555320336759,0A6.324555320336759,6.324555320336759,0,1,1,6.324555320336759,0" style="fill: #26445F; stroke-width: 2; opacity: 1;"></path><path transform="translate(0,270)" d="M6.324555320336759,0A6.324555320336759,6.324555320336759,0,1,1,-6.324555320336759,0A6.324555320336759,6.324555320336759,0,1,1,6.324555320336759,0" style="fill: #26445F; stroke-width: 2; opacity: 1;"></path></g><g class="mark-text role-mark layer_2_layer_0_marks"></g><g class="mark-text role-mark layer_2_layer_1_marks"><text text-anchor="middle" transform="translate(400,15)" style="font-family: sans-serif; font-size: 16px; font-weight: bold; fill: black;">Label 1</text><text text-anchor="middle" transform="translate(312.5,75)" style="font-family: sans-serif; font-size: 16px; font-weight: bold; fill: black;">Label 2</text><text text-anchor="middle" transform="translate(100,135)" style="font-family: sans-serif; font-size: 16px; font-weight: bold; fill: black;">Label 3</text><text text-anchor="middle" transform="translate(112.5,195)" style="font-family: sans-serif; font-size: 16px; font-weight: bold; fill: black;">Label 4</text><text text-anchor="middle" transform="translate(25,255)" style="font-family: sans-serif; font-size: 16px; font-weight: bold; fill: black;">Label 5</text></g><g class="mark-group role-axis"><g transform="translate(0.5,300.5)"><path class="background" d="M0,0h0v0h0Z" style="pointer-events: none; fill: none;"></path><g><g class="mark-text role-axis-label" style="pointer-events: none;"><text text-anchor="middle" transform="translate(0,32)" style="font-family: Roboto; font-size: 15px; fill: #4D4D4F; opacity: 1;">0%</text><text text-anchor="middle" transform="translate(50,32)" style="font-family: Roboto; font-size: 15px; fill: #4D4D4F; opacity: 1;">10%</text><text text-anchor="middle" transform="translate(250,32)" style="font-family: Roboto; font-size: 15px; fill: #4D4D4F; opacity: 1;">50%</text><text text-anchor="middle" transform="translate(450,32)" style="font-family: Roboto; font-size: 15px; fill: #4D4D4F; opacity: 1;">90%</text><text text-anchor="middle" transform="translate(500,32)" style="font-family: Roboto; font-size: 15px; fill: #4D4D4F; opacity: 1;">100%</text></g><g class="mark-text role-axis-title" style="pointer-events: none;"><text text-anchor="middle" transform="translate(250,40)" style="font-family: sans-serif; font-size: 0px; font-weight: bold; fill: #000; opacity: 1;">x, arisarina, region, avg_score</text></g></g></g></g><g class="mark-group role-axis"><g transform="translate(0.5,0.5)"><path class="background" d="M0,0h0v0h0Z" style="pointer-events: none; fill: none;"></path><g><g class="mark-text role-axis-label" style="pointer-events: none;"><text text-anchor="end" transform="translate(-20,29)" style="font-family: Roboto; font-size: 0px; fill: #4D4D4F; opacity: 1;">Label 1</text><text text-anchor="end" transform="translate(-20,89)" style="font-family: Roboto; font-size: 0px; fill: #4D4D4F; opacity: 1;">Label 2</text><text text-anchor="end" transform="translate(-20,149)" style="font-family: Roboto; font-size: 0px; fill: #4D4D4F; opacity: 1;">Label 3</text><text text-anchor="end" transform="translate(-20,209)" style="font-family: Roboto; font-size: 0px; fill: #4D4D4F; opacity: 1;">Label 4</text><text text-anchor="end" transform="translate(-20,269)" style="font-family: Roboto; font-size: 0px; fill: #4D4D4F; opacity: 1;">Label 5</text></g><g class="mark-text role-axis-title" style="pointer-events: none;"><text text-anchor="middle" transform="translate(-34,150) rotate(-90)" style="font-family: sans-serif; font-size: 0px; font-weight: bold; fill: #000; opacity: 1;">standard</text></g></g></g></g></g></g></g></g></svg>